<?xml version="1.0" encoding="UTF-8" standalone="no"?>
<svg
   width="533.37372"
   height="559.75226"
   version="1.1"
   id="svg12"
   sodipodi:docname="Designer (10).svg"
   xmlns:inkscape="http://www.inkscape.org/namespaces/inkscape"
   xmlns:sodipodi="http://sodipodi.sourceforge.net/DTD/sodipodi-0.dtd"
   xmlns="http://www.w3.org/2000/svg"
   xmlns:svg="http://www.w3.org/2000/svg">
  <defs
     id="defs12" />
  <sodipodi:namedview
     id="namedview12"
     pagecolor="#ffffff"
     bordercolor="#000000"
     borderopacity="0.25"
     inkscape:showpageshadow="2"
     inkscape:pageopacity="0.0"
     inkscape:pagecheckerboard="0"
     inkscape:deskcolor="#d1d1d1">
    <inkscape:page
       x="0"
       y="0"
       width="533.37372"
       height="559.75226"
       id="page2"
       margin="0"
       bleed="0" />
  </sodipodi:namedview>
  <path
     fill="#C4C5B9"
     d="m 117.71287,416.40572 c -0.477,0.852 -0.943,1.941 -1.681,2.611 -0.769,0.698 -1.792,1.14 -2.622,1.767 -2.673,2.018 -5.869,6.293 -9.654,5.95 -1.295,-0.118 -2.205,-0.768 -2.895,-1.832 -2.400996,-3.702 0.083,-6.563 0.813,-10.114 l -1.275,-0.378 c 1.034,-0.953 2.583,-1.303 3.896,-1.789 -0.673,3.046 1.316,4.702 2.361,7.455 3.823,-0.936 7.393,-2.239 11.057,-3.67 z"
     id="path2"
     style="fill:#0e634c;fill-opacity:1" />
  <path
     fill="#424343"
     d="m 149.60487,507.35672 c 5.962,-1.453 8.372,-6.623 12.342,-10.791 1.602,-1.683 3.703,-3.064 5.566,-4.458 -2.16,5.274 -2.763,21.767 -2.637,27.915 -4.445,-5.619 -10.355,-7.8 -15.271,-12.666 z"
     id="path3"
     style="fill:#0e634c;fill-opacity:1" />
  <path
     fill="#1F2627"
     d="m 42.591874,283.29272 c 4.369,0.153 8.542,1.012 12.258,3.442 q 0.412,0.266 0.809,0.552 0.397,0.287 0.778,0.594 0.382,0.308 0.747,0.634 0.365,0.327 0.712,0.672 0.347,0.345 0.676,0.708 0.329,0.363 0.639,0.743 0.309,0.38 0.598,0.775 0.289,0.395 0.558,0.805 0.268,0.41 0.514,0.833 0.246,0.424 0.47,0.859 0.224,0.436 0.425,0.883 0.201,0.446 0.378,0.903 0.177,0.457 0.331,0.922 0.153,0.465 0.281,0.938 0.129,0.472 0.233,0.951 0.103,0.479 0.182,0.962 0.08,0.49 0.136,0.984 0.056,0.493 0.088,0.989 0.031,0.495 0.038,0.992 0.007,0.496 -0.011,0.993 -0.018,0.496 -0.06,0.991 -0.042,0.495 -0.109,0.987 -0.067,0.492 -0.158,0.98 -0.091,0.488 -0.206,0.971 -0.115,0.484 -0.254,0.96 -0.139,0.477 -0.301,0.947 -0.162,0.469 -0.348,0.93 -0.185,0.46 -0.393,0.911 -0.208,0.451 -0.438,0.892 -0.23,0.44 -0.481,0.868 -0.252,0.428 -0.524,0.843 -0.272,0.416 -0.565,0.817 c -3.611,4.909 -8.76,7.474 -14.638,8.461 -4.2,0.256 -8.133,-0.741 -11.634,-3.141 -4.674,-3.205 -7.92,-8.492 -8.785,-14.082 -0.812,-5.247 0.342,-10.807 3.565,-15.076 3.657,-4.844 8.674,-6.718 14.489,-7.393 z"
     id="path4"
     style="fill:#0e634c;fill-opacity:1" />
  <path
     fill="#1F2627"
     d="m 487.90587,283.25272 c 4.67,-0.417 9.348,-0.117 13.558,2.142 q 0.801,0.431 1.554,0.94 0.755,0.508 1.455,1.089 0.7,0.58 1.339,1.227 0.639,0.647 1.211,1.354 0.572,0.707 1.072,1.467 0.499,0.76 0.921,1.566 0.422,0.805 0.762,1.649 0.34,0.843 0.595,1.716 0.146,0.502 0.266,1.01 0.12,0.509 0.214,1.023 0.094,0.514 0.163,1.032 0.068,0.518 0.11,1.039 0.042,0.521 0.057,1.043 0.016,0.522 0.005,1.045 -0.011,0.522 -0.048,1.043 -0.037,0.521 -0.1,1.04 -0.064,0.519 -0.153,1.034 -0.09,0.515 -0.205,1.024 -0.116,0.51 -0.256,1.013 -0.142,0.503 -0.308,0.998 -0.166,0.496 -0.357,0.982 -0.191,0.487 -0.406,0.963 -0.216,0.476 -0.455,0.94 -0.239,0.465 -0.501,0.917 c -3.189,5.4 -8.165,8.354 -14.073,9.941 -5.233,0.813 -9.755,0.257 -14.229,-2.793 -4.711,-3.211 -8.382,-8.424 -9.307,-14.099 -0.843,-5.175 0.334,-10.83 3.503,-15.047 3.44,-4.576 8.133,-6.505 13.613,-7.298 z"
     id="path5"
     style="fill:#0e634c;fill-opacity:1" />
  <path
     fill="#1F2627"
     d="m 273.98587,327.82972 c 28.723,-1.089 46.354,6.769 67.979,24.891 19.437,16.288 33.188,36.124 46.961,57.157 10.295,15.721 18.764,29.18 26.834,46.214 1.603,3.383 5.971,10.064 5.877,13.666 -0.211,8.096 -9.531,17.64 -15.321,22.651 -9.335,-9.861 -12.331,-26.215 -17.795,-38.385 -12.657,-28.191 -46.9,-77.4 -73.837,-92.723 -16.722,-9.513 -36.872,-10.541 -55.056,-5.372 -7.897,2.835 -16.128,6.945 -22.837,12.004 -22.811,17.199 -47.022,54.873 -63.685,78.317 -8.578,12.069 -19.114,22.723 -27.394,34.961 -3.116,4.606 -4.395,9.862 -7.269,14.556 -0.117,0.192 -0.24,0.381 -0.36,0.571 -13.071,-8.567 -21.757,-18.216 -26.692,-33.274 0.352,-0.242 0.708,-0.479 1.058,-0.724 5.949,-4.18 12.842,-6.758 18.632,-11.223 13.82,-10.658 26.151,-25.106 36.604,-39.021 6.811,-9.068 13.201,-18.343 20.606,-26.956 23.192,-26.968 47.77,-54.423 85.695,-57.31 z"
     id="path6"
     style="fill:#0e634c;fill-opacity:1" />
  <path
     fill="#1F2627"
     d="m 41.108874,94.324725 c 16.257,-0.598 29.12,4.664 42.28,13.960995 19.911996,14.068 34.438996,36.332 38.540996,60.444 3.381,19.879 1.334,37.446 -10.629,53.991 -6.818,9.43 -16.586996,13.563 -27.751996,15.351 -19.071,0.955 -31.611,-3.947 -46.287,-16.216 -19.774,-16.531 -34.6480005,-42.487 -36.82300046,-68.301 -1.291,-15.315 -0.248,-33.752 10.22000046,-45.973 8.166,-9.532995 18.349,-12.326995 30.45,-13.256995 z"
     id="path7"
     style="fill:#0e634c;fill-opacity:1" />
  <path
     fill="#1F2627"
     d="m 488.42087,93.825725 c 0.276,-0.02 0.552,-0.042 0.829,-0.059 10.872,-0.656 22.371,2.143 30.558,9.572995 9.731,8.832 13.004,22.565 13.484,35.249 0.873,23.059 -5.246,43.44 -17.999,62.503 -2.864,4.281 -5.658,8.52 -9.184,12.293 -13.088,14.001 -31.818,24.588 -51.285,25.215 -11.799,0.123 -21.028,-2.376 -30.035,-10.215 -10.1,-8.789 -15.393,-20.569 -16.316,-33.817 q -0.094,-1.221 -0.158,-2.445 -0.064,-1.223 -0.097,-2.448 -0.033,-1.224 -0.036,-2.45 -0.003,-1.225 0.025,-2.449 0.028,-1.225 0.087,-2.449 0.058,-1.224 0.147,-2.445 0.089,-1.222 0.209,-2.441 0.119,-1.22 0.269,-2.436 0.15,-1.215 0.331,-2.427 0.18,-1.212 0.39,-2.419 0.211,-1.207 0.451,-2.408 0.241,-1.201 0.511,-2.396 0.271,-1.195 0.571,-2.382 0.3,-1.188 0.63,-2.368 0.33,-1.18 0.689,-2.351 0.359,-1.171 0.747,-2.333 0.388,-1.162 0.805,-2.314 0.417,-1.152 0.863,-2.293 0.446,-1.141 0.92,-2.271 0.474,-1.129 0.976,-2.247 0.502,-1.117 1.032,-2.222 0.53,-1.104 1.088,-2.195 0.557,-1.091 1.141,-2.168 0.585,-1.077 1.196,-2.138 0.611,-1.062 1.248,-2.108 0.638,-1.047 1.301,-2.077 0.663,-1.03 1.352,-2.043 0.689,-1.013 1.403,-2.008 0.714,-0.996 1.452,-1.973 0.739,-0.978 1.502,-1.936 0.763,-0.959 1.549,-1.898 0.786,-0.94 1.596,-1.859 c 14.54,-16.522 33.702,-26.913995 55.758,-28.344995 z"
     id="path8"
     style="fill:#0e634c;fill-opacity:1" />
  <path
     fill="#1F2627"
     d="m 175.03887,0.29672485 c 0.23,-0.028 0.46,-0.059 0.691,-0.085 13.767,-1.51499995 28.288,5.46100005 38.696,13.89400015 18.827,15.254 30.242,39.876 32.533,63.703 1.967,20.454 -0.383,44.446995 -14.031,60.812995 -8.449,10.132 -18.542,15.553 -31.673,16.748 -12.425,1.846 -26.849,-3.782 -36.664,-11.104 -19.962,-14.891 -31.183,-40.29 -34.565,-64.382995 -2.841,-20.241 0.391,-44.385 13.024,-61.06 8.115,-10.7120001 18.784,-16.6490001 31.989,-18.52600015 z"
     id="path9"
     style="fill:#0e634c;fill-opacity:1" />
  <path
     fill="#1F2627"
     d="m 346.59087,0.27872485 c 11.182,-1 21.638,0.547 31.069,6.99400005 12.464,8.5210001 21.102,22.8770001 23.75,37.6270001 4.349,24.226 -1.085,55.100995 -15.267,75.533995 -12.489,17.995 -25.25,29.943 -47.701,34.053 -10.805,1.446 -22.597,-2.312 -31.47,-8.484 -12.476,-8.678 -19.831,-23.194 -22.4,-37.886 -4.734,-27.072995 1.266,-55.950995 17.265,-78.334995 11.057,-15.471 25.809,-26.3660001 44.754,-29.50300015 z"
     id="path10"
     style="fill:#0e634c;fill-opacity:1" />
  <path
     fill="#1F2627"
     d="m 167.51287,492.10772 c 7.926,-8.342 17.93,-13.88 24.975,-23.089 3.585,-4.686 6.212,-10.081 9.425,-15.017 3.293,-5.06 7.224,-9.698 10.564,-14.734 3.883,-5.853 7.166,-12.148 11.326,-17.807 3.635,-4.945 7.955,-8.998 12.452,-13.138 11.453,-10.544 22.139,-17.361 38.288,-17.717 14.606,-0.323 31.478,5.107 42.062,15.412 6.508,6.336 8.935,18.728 14.325,26.294 4.397,6.172 10.856,11.312 15.93,16.985 5.45,6.093 11.079,12.236 15.986,18.773 8.059,10.735 19.633,30.452 24.492,43.122 -4.078,6.188 -9.55,9.781 -15.545,13.93 -19.95,13.809 -43.736,25.001 -67.586,29.935 -12.609,2.608 -26.211,4.66 -39.09,4.695 -29.798,0.081 -61.237,-9.697 -85.886,-26.07 -5.644,-3.75 -10.386,-8.144 -14.355,-13.659 -0.126,-6.148 0.477,-22.641 2.637,-27.915 z"
     id="path11"
     style="fill:#0e634c;fill-opacity:1" />
  <path
     fill="#1F2627"
     d="m 88.032874,376.87372 c -1.103,-9.679 1.504,-20.382 3.571,-29.847 7.022,-32.152 14.323996,-53.14 35.059996,-79.276 17.641,-22.235 45.516,-44.259 71.891,-54.846 15.009,-6.025 30.64,-9.315 46.679,-11.087 40.883,-4.517 80.35,3.005 115.706,24.211 6.485,3.89 12.876,7.844 18.774,12.601 35.253,28.426 60.555,70.674 65.446,116.069 q 0.971,9.494 0.242,19.009 c -0.341,4.102 -1.1,8.379 -0.985,12.484 0.649,14.414 -1.347,28.637 -4.687,42.665 -0.16,-0.153 -0.322,-0.303 -0.48,-0.457 -8.154,-7.94 -14.484,-18.7 -21.469,-27.728 -6.846,-8.848 -14.197,-17.295 -21.05,-26.128 -4.17,-5.376 -7.956,-11.043 -12.146,-16.403 -19.142,-24.489 -39.935,-45.903 -67.953,-60.11 -12.995,-6.589 -26.779,-11.072 -41.489,-10.943 -28.521,0.25 -50.226,13.868 -69.544,33.688 -10.936,11.219 -19.885,24.036 -29.562,36.286 -6.573,8.32 -13.713,16.027 -20.473,24.161 -11.777,14.172 -21.447,25.9 -37.851,35.183 -3.664,1.431 -7.234,2.734 -11.057,3.67 -1.045,-2.753 -3.034,-4.409 -2.361,-7.455 3.104,-5.551 7.157,-10.06 11.23,-14.907 2.848,-3.389 5.516,-6.953 8.454,-10.263 5.527,-6.225 11.311,-12.069 16.574,-18.542 7.375,-9.072 15.029,-18.232 21.986,-27.615 4.745,-6.4 8.994,-13.172 13.767,-19.551 8.667,-11.583 19.115,-23.172 29.871,-32.868 20.806,-18.754 47.33,-27.392 75.124,-25.93 45.317,2.382 79.167,31.396 106.955,64.464 6.372,7.582 11.887,15.82 18.376,23.313 3.546,4.095 7.315,7.993 10.858,12.091 3.341,3.863 6.531,8.073 10.197,11.628 4.308,4.177 9.512,7.396 13.511,11.891 0.475,0.534 0.959,1.031 1.471,1.528 l 0.996,-1.241 -0.113,-0.895 c -0.221,-1.859 0.108,-3.814 -0.324,-5.63 -1.649,-6.917 -14.886,-25.229 -19.326,-32.685 -14.898,-25.021 -32.531,-57.814 -55.39,-76.132 -6.056,-4.853 -12.631,-9.034 -19.189,-13.166 -25.413,-16.015 -55.668,-30.151 -86.441,-26.55 -26.062,3.05 -39.298,9.874 -58.618,26.747 q -5.913,5.081 -11.321,10.697 -5.408,5.615 -10.263,11.716 c -16.393,20.96 -31.397,43.857 -49.704,63.214 -6.653,7.035 -14.062,13.439 -21.592,19.512 -6.778,5.465 -14.709996,11.478 -23.350996,13.427 z"
     id="path12"
     style="fill:#0e634c;fill-opacity:1" />
</svg>
