<?xml version="1.0" encoding="UTF-8" standalone="no"?>
<svg
   width="1069.3109"
   height="953.38586"
   version="1.1"
   id="svg18"
   sodipodi:docname="IMG-20241209-WA0013 (1).svg"
   xmlns:inkscape="http://www.inkscape.org/namespaces/inkscape"
   xmlns:sodipodi="http://sodipodi.sourceforge.net/DTD/sodipodi-0.dtd"
   xmlns="http://www.w3.org/2000/svg"
   xmlns:svg="http://www.w3.org/2000/svg">
  <defs
     id="defs18" />
  <sodipodi:namedview
     id="namedview18"
     pagecolor="#ffffff"
     bordercolor="#000000"
     borderopacity="0.25"
     inkscape:showpageshadow="2"
     inkscape:pageopacity="0.0"
     inkscape:pagecheckerboard="0"
     inkscape:deskcolor="#d1d1d1">
    <inkscape:page
       x="0"
       y="0"
       width="1069.3109"
       height="953.38586"
       id="page2"
       margin="0"
       bleed="0" />
  </sodipodi:namedview>
  <path
     fill="#0E634C"
     d="m -83.63937,43.406422 c 131.81,-124.209 313,-220.964002 534.88,-243.194002 182.1,-18.243 364.81,23.454 510.21,100.820002 269.02997,143.14 417.06997,384.340998 462.88997,614.834998 57.01,286.76 -14.83,608.09998 -265.93,843.25998 -134.74,126.17 -317.59997,221.12 -543.21997,242.76 -178.21,17.09 -364.47,-27.03 -505.44,-103.52 -161.71,-87.74 -289.963,-218.97 -360.777,-353.62 -0.01,-5.29 -1.111,-9.91 4.194,-13.93 6.951,9.38 12.117,19.91 18.017,29.67 q 16.564,27.98 35.656,55.14 c 69.11,97.94 163.13,189.75 284.09,258.9 146.4,83.7 325.15,131.56 514.99,116.89 215.19,-16.63 395.66997,-107.63 528.07997,-224.66 249.86,-220.85 329.69,-532.77998 285.96,-808.66998 -37.61,-237.329 -175.86,-485.671998 -446.41997,-637.855998 -140.45,-79.000002 -323.17,-125.026002 -503.42,-110.287002 -160.18,13.097 -306.78,65.859 -423.4,143.837002 -45.5600001,30.469 -85.37,63.851 -124.23,98.536 -0.76,-0.274 -1.57,-0.495 -2.29,-0.823 -4.18,-1.898 -3.34,-4.896 -3.84,-8.088 z"
     id="path2"
     style="fill:#0e634c;fill-opacity:1" />
  <path
     fill="#0E634C"
     d="m 971.86063,315.36442 c 15.19,-0.606 28.68997,0.494 42.45997,5.524 23.99,8.764 37.2,26.189 44.93,43.729 23.07,52.44 3.92,116.94 -31.65,164.43 -23.98,32.02 -60.49997,60.92 -110.58997,71.72 -18.13,1.09 -34.5,0.16 -50.39,-6.68 -25.7,-11.06 -38.02,-32.28 -44.66,-52.1 -18.79,-56.05 4.82,-120.3 46.98,-168.45 24.49,-27.96 56.76,-50.357 102.92,-58.173 z"
     id="path14"
     style="fill:#0e634c;fill-opacity:1" />
  <path
     fill="#0E634C"
     d="m 77.06063,315.18742 c 17.71,-0.722 33.1,1.021 49.14,6.449 52.77,17.862 87.77,61.421 106.56,98.811 22.03,43.83 34.06,100.54 4.42,144.12 -12,17.63 -30.1,29.82 -56.52,36.25 -20.89,1.05 -39.19,-1.14 -57.71,-8.18 -55.96,-21.27 -90.92,-70.09 -107.9,-111.52 -16.5900001,-40.51 -25.22,-95.4 5.21,-133.89 12.8,-16.195 31.73,-26.949 56.8,-32.04 z"
     id="path15"
     style="fill:#0e634c;fill-opacity:1" />
  <path
     fill="#0E634C"
     d="m 708.68063,0.48242188 c 17.33,-1.24400001 33.05,-0.27200001 48.96,5.16100002 32.46,11.0890001 51.46,34.8440001 63.32,57.8870001 38.42,74.653998 26.24,171.609998 -21.77,242.731998 -22.79,33.766 -52.84,63.185 -104.12,76.165 -17.59,2.6 -34.26,1.41 -50.6,-4.08 -35.63,-11.97 -55.38,-39.21 -67.15,-64.488 -35.11,-75.352 -21.05,-173.179 29.73,-243.522998 22.75,-31.502 52.66,-58.744 101.63,-69.85400012 z"
     id="path16"
     style="fill:#0e634c;fill-opacity:1" />
  <path
     fill="#0E634C"
     d="m 332.95063,0.52642187 c 21.6,-1.25199999 41.91,2.50700003 60.34,10.42400013 58.51,25.133 88.44,82.486 103.97,127.155998 22.3,64.151 25.21,150.146 -25.07,208.171 -16.33,18.84 -38.17,32.52 -68.97,37.89 -17.77,2.25 -37,-2.23 -52.39,-8.38 -57.85,-23.14 -89.05,-75.264 -105.5,-118.411 -25.54,-66.991 -31.73,-155.973 18.75,-217.444998 16.27,-19.822 37.16,-33.3950001 68.87,-39.40500013 z"
     id="path17"
     style="fill:#0e634c;fill-opacity:1" />
  <path
     fill="#0E634C"
     d="m 527.24063,436.60742 c 13.61,0 27.23,0.55 40.59,2.52 120.81,17.89 169.2,129.13 227.96,194.5 24.75,27.54 58.48,50.3 83.29,77.67 34.29,37.8 40.48,85.94 26.72,129.13 -12.22,38.35 -39.97,80.1 -88.93,101.49 -104.65,45.72 -174.51,-58.97 -269.18,-74.64 l -2.58,-0.42 c -97.89,-1.79 -137.64,80.43 -228.81,86.23 -30.06,1.91 -57.34,-6.95 -80.02,-20.25 -47.17,-27.68 -73.15,-76.01 -78.01,-118.25 -3.13,-27.27 0.76,-56.23 15.86,-81.62 7.25,-12.17 17.21,-23.26 28.59,-33.7 24.48,-22.47 51.84,-42.65 72.79,-67.05 41.19,-47.94 70.52,-101.13 122.56,-144.14 34.66,-28.65 75.19,-48.38 129.17,-51.47 z"
     id="path18"
     style="fill:#0e634c;fill-opacity:1" />
</svg>
